<svg width="32" height="32" viewBox="0 0 32 32" fill="none" xmlns="http://www.w3.org/2000/svg">
  <!-- Background circle -->
  <circle cx="16" cy="16" r="16" fill="url(#gradient)"/>
  
  <!-- Letter Q -->
  <path d="M16 6C11.03 6 7 10.03 7 15C7 19.97 11.03 24 16 24C20.97 24 25 19.97 25 15C25 10.03 20.97 6 16 6ZM16 21C12.69 21 10 18.31 10 15C10 11.69 12.69 9 16 9C19.31 9 22 11.69 22 15C22 18.31 19.31 21 16 21Z" fill="white"/>
  
  <!-- Q tail -->
  <path d="M19.5 18.5L22 21L20.5 22.5L18 20" stroke="white" stroke-width="2" stroke-linecap="round"/>
  
  <!-- Gradient definition -->
  <defs>
    <linearGradient id="gradient" x1="0%" y1="0%" x2="100%" y2="100%">
      <stop offset="0%" style="stop-color:#60a5fa;stop-opacity:1" />
      <stop offset="100%" style="stop-color:#34d399;stop-opacity:1" />
    </linearGradient>
  </defs>
</svg>
