<svg xmlns="http://www.w3.org/2000/svg" id="canvas" viewBox="215.138 345.142 883.232 114.537"><path d="M 292.78,354.98 C 292.76 354.10, 292.39 353.40, 291.42 352.41 C 290.44 351.41, 289.67 350.79, 287.91 349.99 C 286.15 349.20, 284.96 348.77, 282.62 348.44 C 280.28 348.10, 279.00 348.03, 276.21 348.34 C 273.42 348.65, 271.92 348.91, 268.68 349.99 C 265.44 351.07, 263.65 351.77, 260.01 353.72 C 256.38 355.66, 254.36 356.89, 250.51 359.73 C 246.65 362.57, 244.50 364.31, 240.74 367.91 C 236.97 371.50, 234.94 373.61, 231.68 377.71 C 228.42 381.81, 226.82 384.14, 224.43 388.39 C 222.04 392.64, 220.99 394.90, 219.73 398.96 C 218.48 403.02, 218.03 405.07, 218.16 408.68 C 218.29 412.30, 218.75 414.16, 220.38 417.05 C 222.02 419.93, 223.41 421.25, 226.35 423.10 C 229.30 424.96, 231.23 425.56, 235.10 426.34 C 238.97 427.11, 241.25 427.18, 245.72 426.97 C 250.18 426.75, 252.67 426.33, 257.44 425.26 C 262.22 424.20, 264.84 423.39, 269.59 421.65 C 274.34 419.91, 276.79 418.82, 281.20 416.55 C 285.61 414.28, 287.81 412.95, 291.64 410.29 C 295.48 407.63, 297.33 406.15, 300.38 403.26 C 303.44 400.37, 304.75 398.87, 306.93 395.82 C 309.11 392.77, 309.97 391.14, 311.28 388.00 C 312.59 384.87, 312.96 383.25, 313.48 380.15 C 314.01 377.05, 314.05 375.45, 313.89 372.51 C 313.74 369.57, 313.41 368.07, 312.70 365.43 C 312.00 362.79, 311.50 361.51, 310.38 359.30 C 309.26 357.10, 308.62 355.92, 307.10 354.41 C 305.59 352.89, 304.00 351.93, 302.81 351.72 C 301.62 351.51, 301.04 352.24, 301.16 353.35 C 301.27 354.46, 302.47 355.64, 303.39 357.28 C 304.32 358.91, 304.92 359.63, 305.79 361.53 C 306.65 363.42, 307.11 364.49, 307.71 366.76 C 308.31 369.02, 308.57 370.31, 308.79 372.85 C 309.00 375.40, 309.08 376.76, 308.78 379.48 C 308.48 382.20, 308.29 383.62, 307.28 386.45 C 306.28 389.28, 305.61 390.78, 303.74 393.63 C 301.87 396.49, 300.73 397.95, 297.94 400.74 C 295.14 403.54, 293.40 405.01, 289.76 407.61 C 286.12 410.21, 284.00 411.54, 279.75 413.74 C 275.50 415.95, 273.10 417.00, 268.50 418.64 C 263.90 420.28, 261.32 421.02, 256.74 421.94 C 252.16 422.86, 249.75 423.16, 245.59 423.23 C 241.44 423.30, 239.34 423.06, 235.95 422.30 C 232.57 421.53, 231.04 420.90, 228.66 419.42 C 226.28 417.94, 225.37 417.09, 224.05 414.91 C 222.73 412.72, 222.24 411.48, 222.05 408.49 C 221.85 405.50, 222.04 403.65, 223.07 399.94 C 224.11 396.23, 225.02 393.99, 227.23 389.93 C 229.43 385.87, 230.96 383.58, 234.11 379.65 C 237.25 375.71, 239.25 373.66, 242.94 370.26 C 246.63 366.85, 248.78 365.20, 252.56 362.63 C 256.34 360.07, 258.34 359.00, 261.84 357.42 C 265.34 355.85, 267.08 355.47, 270.05 354.77 C 273.01 354.07, 274.34 354.05, 276.67 353.94 C 279.00 353.83, 279.89 353.89, 281.69 354.22 C 283.49 354.56, 284.21 355.11, 285.66 355.60 C 287.11 356.09, 287.77 356.43, 288.94 356.68 C 290.11 356.92, 290.74 357.16, 291.51 356.82 C 292.27 356.48, 292.79 355.86, 292.78 354.98" style="stroke: black; fill: black;"/><path d="M 307.11,382.50 C 306.22 383.20, 305.79 384.34, 304.83 386.47 C 303.88 388.60, 303.47 390.10, 302.34 393.15 C 301.22 396.20, 300.56 398.34, 299.20 401.73 C 297.84 405.13, 297.02 406.90, 295.55 410.11 C 294.08 413.32, 293.16 414.93, 291.84 417.80 C 290.53 420.67, 289.72 422.05, 288.99 424.46 C 288.27 426.87, 288.13 428.14, 288.22 429.87 C 288.30 431.59, 288.88 432.47, 289.43 433.09 C 289.99 433.71, 290.53 433.51, 290.99 432.96 C 291.45 432.42, 291.21 431.74, 291.74 430.37 C 292.28 429.00, 292.75 428.25, 293.65 426.12 C 294.54 424.00, 295.03 422.56, 296.24 419.74 C 297.45 416.92, 298.20 415.23, 299.68 412.00 C 301.16 408.78, 302.10 407.03, 303.65 403.63 C 305.19 400.24, 306.20 398.19, 307.39 395.03 C 308.58 391.88, 309.20 390.27, 309.58 387.86 C 309.96 385.45, 309.78 384.06, 309.28 382.98 C 308.79 381.91, 308.00 381.80, 307.11 382.50" style="stroke: black; fill: black;"/><path d="M 335.29,377.33 C 334.49 377.36, 334.02 377.60, 332.91 378.60 C 331.81 379.60, 331.03 380.28, 329.75 382.33 C 328.48 384.38, 327.88 385.98, 326.54 388.86 C 325.20 391.73, 324.52 393.59, 323.05 396.72 C 321.57 399.84, 320.59 401.55, 319.15 404.49 C 317.70 407.43, 316.83 408.85, 315.83 411.39 C 314.82 413.94, 314.42 415.25, 314.14 417.23 C 313.85 419.22, 314.12 420.12, 314.39 421.32 C 314.66 422.51, 315.02 422.85, 315.49 423.20 C 315.96 423.54, 316.36 423.40, 316.75 423.06 C 317.15 422.71, 317.10 422.39, 317.46 421.45 C 317.83 420.51, 317.93 419.98, 318.56 418.36 C 319.19 416.75, 319.62 415.71, 320.63 413.37 C 321.64 411.04, 322.22 409.55, 323.62 406.68 C 325.02 403.81, 325.96 402.05, 327.61 399.04 C 329.26 396.02, 330.30 394.33, 331.85 391.59 C 333.40 388.86, 334.37 387.50, 335.36 385.37 C 336.36 383.23, 336.50 382.31, 336.81 380.92 C 337.13 379.53, 337.24 379.13, 336.94 378.42 C 336.63 377.70, 336.10 377.29, 335.29 377.33" style="stroke: black; fill: black;"/><path d="M 352.88,351.49 C 353.41 351.39, 353.40 351.16, 352.86 351.11 C 352.32 351.06, 350.72 351.13, 350.19 351.24 C 349.66 351.34, 349.67 351.57, 350.21 351.62 C 350.74 351.67, 352.35 351.59, 352.88 351.49" style="stroke: black; fill: black;"/><path d="M 453.42,355.68 C 452.54 355.33, 451.70 355.17, 449.80 355.81 C 447.90 356.45, 446.60 357.00, 443.92 358.88 C 441.25 360.77, 439.73 362.23, 436.42 365.23 C 433.11 368.23, 431.18 370.10, 427.37 373.86 C 423.57 377.63, 421.27 379.82, 417.38 384.04 C 413.49 388.27, 411.35 390.60, 407.91 394.99 C 404.47 399.38, 402.76 401.74, 400.17 406.00 C 397.57 410.26, 396.45 412.38, 394.94 416.29 C 393.42 420.19, 392.86 422.09, 392.60 425.52 C 392.34 428.96, 392.57 430.63, 393.63 433.48 C 394.70 436.32, 395.65 437.70, 397.92 439.74 C 400.19 441.79, 401.75 442.56, 404.97 443.72 C 408.18 444.89, 410.12 445.13, 413.98 445.57 C 417.84 446.01, 420.35 445.91, 424.27 445.92 C 428.19 445.94, 430.47 445.90, 433.59 445.64 C 436.72 445.39, 437.90 445.17, 439.89 444.66 C 441.88 444.16, 442.59 443.67, 443.55 443.13 C 444.51 442.59, 444.49 442.39, 444.68 441.98 C 444.86 441.56, 444.79 441.36, 444.46 441.07 C 444.13 440.78, 444.07 440.68, 443.04 440.52 C 442.01 440.37, 441.26 440.28, 439.30 440.32 C 437.33 440.35, 436.23 440.49, 433.22 440.70 C 430.20 440.91, 427.97 441.30, 424.23 441.38 C 420.49 441.46, 418.03 441.52, 414.50 441.09 C 410.97 440.67, 409.28 440.24, 406.58 439.26 C 403.87 438.29, 402.77 437.70, 400.98 436.22 C 399.20 434.75, 398.54 433.99, 397.66 431.89 C 396.78 429.80, 396.47 428.63, 396.57 425.75 C 396.67 422.86, 396.90 421.10, 398.14 417.46 C 399.38 413.82, 400.36 411.69, 402.77 407.55 C 405.17 403.41, 406.82 401.06, 410.17 396.76 C 413.52 392.46, 415.64 390.15, 419.53 386.05 C 423.42 381.95, 425.74 379.79, 429.64 376.26 C 433.54 372.73, 435.56 370.99, 439.03 368.40 C 442.50 365.82, 444.39 365.07, 446.98 363.35 C 449.57 361.64, 450.53 360.99, 451.97 359.82 C 453.41 358.66, 453.90 358.36, 454.19 357.53 C 454.48 356.70, 454.30 356.02, 453.42 355.68" style="stroke: black; fill: black;"/><path d="M 535.43,370.87 C 535.10 370.14, 534.66 369.71, 533.41 369.27 C 532.16 368.83, 531.25 368.55, 529.18 368.69 C 527.11 368.82, 525.73 368.91, 523.07 369.94 C 520.42 370.96, 519.05 371.95, 515.89 373.80 C 512.73 375.64, 510.92 376.74, 507.29 379.17 C 503.65 381.60, 501.54 383.02, 497.71 385.95 C 493.87 388.87, 491.75 390.58, 488.09 393.79 C 484.44 397.00, 482.53 398.77, 479.44 401.99 C 476.36 405.20, 474.86 406.82, 472.66 409.88 C 470.47 412.94, 469.43 414.41, 468.45 417.28 C 467.47 420.16, 467.43 421.67, 467.77 424.25 C 468.11 426.84, 468.61 428.10, 470.16 430.21 C 471.72 432.32, 472.87 433.43, 475.56 434.79 C 478.25 436.15, 480.09 436.48, 483.62 436.99 C 487.16 437.50, 489.22 437.46, 493.24 437.35 C 497.27 437.25, 499.52 437.03, 503.75 436.47 C 507.99 435.92, 510.30 435.48, 514.42 434.58 C 518.54 433.67, 520.86 433.01, 524.37 431.94 C 527.88 430.87, 529.61 430.39, 531.96 429.22 C 534.32 428.04, 535.44 427.02, 536.13 426.08 C 536.83 425.13, 536.56 424.63, 535.43 424.49 C 534.30 424.35, 532.96 424.70, 530.49 425.38 C 528.03 426.06, 526.49 426.79, 523.10 427.87 C 519.71 428.95, 517.52 429.84, 513.55 430.79 C 509.59 431.73, 507.34 432.13, 503.28 432.59 C 499.21 433.04, 497.00 433.15, 493.23 433.07 C 489.46 432.99, 487.52 432.79, 484.44 432.18 C 481.36 431.57, 480.00 430.98, 477.83 430.02 C 475.65 429.07, 474.78 428.66, 473.59 427.41 C 472.39 426.16, 472.04 425.50, 471.86 423.76 C 471.69 422.03, 471.90 421.07, 472.70 418.74 C 473.50 416.40, 474.02 414.96, 475.88 412.08 C 477.74 409.21, 479.10 407.53, 481.99 404.38 C 484.88 401.23, 486.75 399.45, 490.32 396.33 C 493.88 393.21, 495.99 391.53, 499.80 388.78 C 503.62 386.02, 505.74 384.67, 509.39 382.54 C 513.05 380.41, 514.95 379.48, 518.09 378.12 C 521.23 376.77, 522.69 376.47, 525.08 375.75 C 527.46 375.04, 528.38 374.94, 530.00 374.56 C 531.63 374.17, 532.18 374.16, 533.20 373.83 C 534.21 373.50, 534.63 373.50, 535.07 372.91 C 535.52 372.32, 535.77 371.60, 535.43 370.87" style="stroke: black; fill: black;"/><path d="M 575.52,370.87 C 574.77 371.04, 574.53 371.31, 573.60 372.40 C 572.66 373.49, 571.96 374.13, 570.85 376.31 C 569.74 378.49, 569.38 380.17, 568.04 383.28 C 566.70 386.39, 565.89 388.33, 564.14 391.86 C 562.39 395.39, 561.26 397.38, 559.29 400.93 C 557.32 404.49, 556.18 406.36, 554.29 409.63 C 552.40 412.89, 551.32 414.52, 549.86 417.26 C 548.39 420.00, 547.72 421.27, 546.97 423.33 C 546.22 425.38, 545.95 426.26, 546.11 427.55 C 546.26 428.83, 546.71 429.42, 547.75 429.74 C 548.79 430.06, 549.73 429.99, 551.31 429.15 C 552.88 428.31, 553.77 427.48, 555.62 425.54 C 557.48 423.59, 558.25 421.91, 560.59 419.40 C 562.94 416.89, 564.49 415.39, 567.35 412.97 C 570.20 410.55, 571.88 409.20, 574.85 407.28 C 577.82 405.36, 579.52 404.58, 582.19 403.37 C 584.86 402.16, 586.19 401.76, 588.18 401.23 C 590.18 400.70, 590.98 400.57, 592.17 400.72 C 593.36 400.88, 593.70 401.14, 594.14 401.99 C 594.58 402.84, 594.51 403.43, 594.38 404.98 C 594.24 406.53, 593.98 407.62, 593.47 409.75 C 592.96 411.87, 592.55 413.21, 591.82 415.61 C 591.09 418.01, 590.53 419.43, 589.83 421.76 C 589.12 424.08, 588.68 425.31, 588.29 427.25 C 587.90 429.19, 587.84 430.11, 587.88 431.44 C 587.91 432.78, 588.06 433.37, 588.48 433.92 C 588.89 434.47, 589.37 434.52, 589.95 434.21 C 590.53 433.89, 590.72 433.43, 591.39 432.35 C 592.05 431.28, 592.47 430.57, 593.25 428.83 C 594.03 427.09, 594.41 425.92, 595.30 423.65 C 596.18 421.37, 596.86 420.01, 597.69 417.45 C 598.52 414.89, 599.08 413.43, 599.44 410.86 C 599.80 408.28, 599.93 406.81, 599.50 404.58 C 599.07 402.35, 598.60 401.23, 597.31 399.69 C 596.02 398.16, 595.08 397.52, 593.06 396.92 C 591.05 396.33, 589.81 396.28, 587.23 396.70 C 584.66 397.13, 583.17 397.69, 580.21 399.07 C 577.25 400.45, 575.59 401.53, 572.45 403.60 C 569.30 405.68, 567.60 407.06, 564.50 409.45 C 561.40 411.83, 559.73 413.24, 556.96 415.53 C 554.19 417.81, 552.53 418.85, 550.66 420.87 C 548.79 422.89, 548.27 424.11, 547.60 425.62 C 546.94 427.13, 547.08 427.86, 547.33 428.42 C 547.59 428.99, 548.11 429.08, 548.89 428.45 C 549.66 427.82, 550.18 427.09, 551.22 425.29 C 552.25 423.48, 552.72 422.14, 554.06 419.42 C 555.40 416.69, 556.17 414.94, 557.92 411.64 C 559.67 408.34, 560.80 406.46, 562.83 402.93 C 564.85 399.40, 566.04 397.42, 568.05 393.97 C 570.07 390.53, 571.22 388.72, 572.92 385.72 C 574.63 382.71, 575.62 381.27, 576.58 378.95 C 577.54 376.63, 577.56 375.61, 577.71 374.13 C 577.85 372.65, 577.76 372.19, 577.32 371.54 C 576.89 370.89, 576.26 370.69, 575.52 370.87" style="stroke: black; fill: black;"/><path d="M 621.40,421.02 C 621.72 421.71, 622.11 422.09, 623.28 422.51 C 624.45 422.93, 625.27 423.18, 627.25 423.13 C 629.23 423.08, 630.61 422.91, 633.18 422.26 C 635.75 421.61, 637.26 420.97, 640.11 419.89 C 642.97 418.81, 644.59 418.09, 647.46 416.86 C 650.33 415.63, 651.92 415.06, 654.47 413.73 C 657.02 412.41, 658.30 411.70, 660.20 410.25 C 662.11 408.80, 663.00 408.07, 663.98 406.49 C 664.97 404.92, 665.31 403.99, 665.14 402.39 C 664.98 400.78, 664.57 399.73, 663.14 398.49 C 661.71 397.24, 660.53 396.56, 657.99 396.15 C 655.46 395.75, 653.79 395.86, 650.47 396.46 C 647.15 397.07, 645.16 397.77, 641.40 399.18 C 637.64 400.59, 635.42 401.56, 631.65 403.50 C 627.88 405.44, 625.85 406.65, 622.56 408.87 C 619.27 411.09, 617.57 412.23, 615.20 414.60 C 612.82 416.96, 611.77 418.24, 610.68 420.70 C 609.58 423.15, 609.40 424.53, 609.72 426.86 C 610.04 429.18, 610.62 430.40, 612.28 432.31 C 613.95 434.22, 615.17 435.28, 618.05 436.40 C 620.93 437.52, 622.85 437.58, 626.67 437.93 C 630.49 438.28, 632.70 438.27, 637.13 438.14 C 641.56 438.01, 644.44 437.74, 648.82 437.28 C 653.20 436.82, 655.65 436.57, 659.02 435.84 C 662.39 435.11, 664.42 434.44, 665.68 433.62 C 666.94 432.79, 666.78 432.03, 665.33 431.71 C 663.88 431.39, 661.81 431.70, 658.43 432.02 C 655.04 432.34, 652.69 432.89, 648.42 433.30 C 644.14 433.71, 641.29 434.06, 637.06 434.06 C 632.83 434.07, 630.66 433.90, 627.25 433.34 C 623.83 432.77, 622.35 432.09, 619.99 431.24 C 617.63 430.39, 616.71 430.08, 615.43 429.10 C 614.14 428.12, 613.74 427.63, 613.56 426.33 C 613.39 425.04, 613.61 424.33, 614.57 422.62 C 615.54 420.92, 616.33 419.87, 618.39 417.80 C 620.46 415.73, 621.88 414.40, 624.90 412.28 C 627.92 410.15, 629.91 408.94, 633.50 407.19 C 637.09 405.44, 639.29 404.55, 642.85 403.52 C 646.41 402.48, 648.37 402.34, 651.29 402.02 C 654.21 401.70, 655.50 401.90, 657.44 401.93 C 659.38 401.95, 660.08 402.00, 661.00 402.13 C 661.93 402.27, 662.11 402.26, 662.08 402.60 C 662.05 402.94, 661.78 403.14, 660.85 403.83 C 659.91 404.51, 659.19 405.05, 657.41 406.04 C 655.64 407.02, 654.39 407.60, 651.98 408.75 C 649.57 409.91, 648.12 410.71, 645.37 411.81 C 642.62 412.90, 640.96 413.43, 638.21 414.24 C 635.46 415.05, 633.99 415.31, 631.63 415.85 C 629.27 416.39, 628.09 416.51, 626.42 416.95 C 624.75 417.39, 624.23 417.63, 623.28 418.05 C 622.34 418.47, 622.06 418.45, 621.68 419.04 C 621.31 419.64, 621.08 420.33, 621.40 421.02" style="stroke: black; fill: black;"/><path d="M 683.04,427.26 C 683.79 427.73, 684.47 427.76, 686.07 427.61 C 687.68 427.45, 688.76 427.30, 691.07 426.50 C 693.38 425.70, 694.89 424.95, 697.62 423.61 C 700.36 422.27, 701.91 421.32, 704.75 419.78 C 707.59 418.24, 709.19 417.47, 711.81 415.91 C 714.43 414.35, 715.84 413.58, 717.86 411.96 C 719.88 410.34, 720.83 409.51, 721.92 407.81 C 723.01 406.10, 723.41 405.10, 723.31 403.43 C 723.21 401.75, 722.81 400.72, 721.43 399.44 C 720.06 398.17, 718.95 397.45, 716.44 397.05 C 713.92 396.65, 712.20 396.76, 708.86 397.44 C 705.52 398.12, 703.49 398.95, 699.74 400.45 C 695.99 401.96, 693.81 402.97, 690.10 404.97 C 686.39 406.96, 684.36 408.16, 681.18 410.43 C 677.99 412.69, 676.33 413.87, 674.19 416.31 C 672.04 418.76, 671.25 420.15, 670.47 422.66 C 669.69 425.17, 669.67 426.52, 670.28 428.85 C 670.89 431.19, 671.60 432.44, 673.52 434.32 C 675.43 436.20, 676.88 437.09, 679.87 438.25 C 682.87 439.42, 684.74 439.62, 688.50 440.14 C 692.25 440.65, 694.41 440.75, 698.66 440.84 C 702.92 440.93, 705.34 440.83, 709.77 440.57 C 714.20 440.31, 716.83 439.98, 720.81 439.55 C 724.79 439.13, 726.82 439.12, 729.67 438.47 C 732.53 437.81, 734.08 437.08, 735.10 436.30 C 736.12 435.52, 735.99 434.93, 734.78 434.54 C 733.58 434.16, 731.96 434.19, 729.07 434.39 C 726.19 434.59, 724.26 435.06, 720.35 435.53 C 716.45 436.00, 713.85 436.49, 709.54 436.75 C 705.24 437.00, 702.87 437.05, 698.82 436.83 C 694.76 436.60, 692.67 436.33, 689.28 435.61 C 685.88 434.89, 684.35 434.24, 681.83 433.24 C 679.32 432.25, 678.23 431.74, 676.69 430.64 C 675.15 429.54, 674.58 429.05, 674.12 427.73 C 673.67 426.42, 673.72 425.74, 674.43 424.06 C 675.13 422.39, 675.80 421.43, 677.64 419.38 C 679.49 417.33, 680.76 415.95, 683.64 413.81 C 686.52 411.66, 688.50 410.45, 692.03 408.64 C 695.56 406.84, 697.74 405.91, 701.30 404.77 C 704.86 403.64, 706.90 403.40, 709.84 402.97 C 712.78 402.55, 714.09 402.70, 715.99 402.65 C 717.89 402.60, 718.49 402.58, 719.32 402.73 C 720.15 402.87, 720.28 402.90, 720.14 403.36 C 720.00 403.82, 719.67 404.16, 718.60 405.04 C 717.54 405.92, 716.70 406.52, 714.80 407.77 C 712.90 409.02, 711.60 409.86, 709.10 411.30 C 706.60 412.74, 705.10 413.64, 702.30 414.98 C 699.49 416.33, 697.82 416.89, 695.09 418.02 C 692.36 419.14, 690.79 419.58, 688.65 420.62 C 686.51 421.65, 685.65 422.26, 684.40 423.20 C 683.14 424.13, 682.63 424.48, 682.36 425.29 C 682.09 426.11, 682.30 426.80, 683.04 427.26" style="stroke: black; fill: black;"/><path d="M 777.89,353.77 C 777.71 354.53, 777.92 354.89, 778.41 356.12 C 778.91 357.36, 779.31 358.15, 780.37 359.95 C 781.43 361.76, 782.30 362.78, 783.71 365.14 C 785.12 367.51, 786.18 368.84, 787.43 371.77 C 788.69 374.71, 789.28 376.39, 789.99 379.82 C 790.69 383.25, 790.94 385.13, 790.94 388.91 C 790.94 392.70, 790.79 394.74, 789.98 398.73 C 789.18 402.73, 788.51 404.87, 786.91 408.89 C 785.31 412.91, 784.25 414.98, 781.98 418.85 C 779.72 422.71, 778.30 424.67, 775.60 428.20 C 772.91 431.73, 771.30 433.48, 768.52 436.50 C 765.73 439.53, 764.19 440.91, 761.69 443.32 C 759.19 445.72, 757.80 446.62, 756.00 448.53 C 754.20 450.44, 753.60 451.43, 752.71 452.86 C 751.82 454.30, 751.56 454.95, 751.54 455.71 C 751.53 456.47, 751.90 456.76, 752.63 456.66 C 753.36 456.56, 753.86 456.16, 755.21 455.21 C 756.56 454.25, 757.50 453.69, 759.38 451.89 C 761.27 450.09, 762.28 448.80, 764.65 446.21 C 767.02 443.61, 768.51 442.12, 771.25 438.93 C 773.99 435.74, 775.61 433.94, 778.35 430.27 C 781.08 426.59, 782.56 424.58, 784.92 420.57 C 787.28 416.56, 788.43 414.42, 790.16 410.20 C 791.89 405.99, 792.64 403.74, 793.59 399.50 C 794.53 395.26, 794.75 393.07, 794.89 388.98 C 795.03 384.90, 794.82 382.86, 794.27 379.08 C 793.73 375.30, 793.17 373.45, 792.15 370.08 C 791.14 366.70, 790.53 364.94, 789.21 362.20 C 787.89 359.46, 787.00 358.19, 785.54 356.37 C 784.09 354.55, 783.20 353.91, 781.95 353.10 C 780.69 352.29, 780.10 352.20, 779.28 352.34 C 778.47 352.47, 778.06 353.01, 777.89 353.77" style="stroke: black; fill: black;"/><path d="M 929.23,356.07 C 928.48 356.28, 928.35 356.68, 927.39 357.76 C 926.44 358.84, 925.73 359.36, 924.46 361.46 C 923.20 363.57, 922.75 365.17, 921.07 368.29 C 919.40 371.42, 918.39 373.34, 916.08 377.09 C 913.77 380.84, 912.29 382.93, 909.52 387.05 C 906.74 391.17, 905.10 393.45, 902.21 397.67 C 899.32 401.89, 897.76 404.14, 895.05 408.14 C 892.34 412.15, 890.93 414.16, 888.66 417.71 C 886.39 421.26, 885.27 422.89, 883.71 425.89 C 882.15 428.89, 881.48 430.19, 880.86 432.69 C 880.25 435.19, 880.20 436.33, 880.63 438.38 C 881.06 440.43, 881.54 441.42, 883.02 442.94 C 884.49 444.46, 885.55 445.19, 888.01 445.97 C 890.48 446.74, 892.04 446.84, 895.33 446.80 C 898.61 446.76, 900.48 446.31, 904.42 445.76 C 908.36 445.20, 910.65 444.79, 915.03 444.03 C 919.41 443.26, 921.86 442.77, 926.32 441.95 C 930.79 441.13, 933.15 440.66, 937.35 439.95 C 941.55 439.24, 943.69 438.89, 947.31 438.39 C 950.94 437.89, 952.60 437.84, 955.48 437.44 C 958.35 437.03, 959.75 436.86, 961.70 436.37 C 963.65 435.89, 964.20 435.53, 965.22 435.02 C 966.25 434.50, 966.55 434.29, 966.82 433.81 C 967.09 433.33, 966.99 432.96, 966.57 432.63 C 966.15 432.30, 965.82 432.28, 964.71 432.16 C 963.60 432.03, 963.02 431.86, 961.03 431.98 C 959.04 432.10, 957.62 432.25, 954.74 432.75 C 951.86 433.25, 950.26 433.76, 946.65 434.48 C 943.05 435.21, 940.90 435.58, 936.71 436.37 C 932.52 437.16, 930.15 437.64, 925.69 438.41 C 921.24 439.19, 918.79 439.64, 914.44 440.23 C 910.10 440.82, 907.79 441.12, 903.97 441.36 C 900.16 441.60, 898.32 441.51, 895.37 441.41 C 892.43 441.32, 891.20 441.19, 889.26 440.88 C 887.31 440.58, 886.66 440.52, 885.67 439.89 C 884.68 439.27, 884.44 438.96, 884.31 437.75 C 884.17 436.53, 884.38 435.83, 885.00 433.83 C 885.62 431.83, 886.09 430.58, 887.43 427.73 C 888.76 424.87, 889.61 423.10, 891.67 419.54 C 893.73 415.98, 895.10 413.94, 897.73 409.93 C 900.36 405.91, 901.91 403.66, 904.82 399.47 C 907.73 395.29, 909.39 393.03, 912.30 388.99 C 915.20 384.95, 916.74 382.89, 919.36 379.28 C 921.97 375.67, 923.29 373.91, 925.37 370.94 C 927.45 367.98, 928.54 366.73, 929.75 364.47 C 930.97 362.21, 931.16 361.21, 931.44 359.65 C 931.72 358.10, 931.59 357.42, 931.15 356.70 C 930.70 355.99, 929.98 355.86, 929.23 356.07" style="stroke: black; fill: black;"/><path d="M 997.45,404.50 C 996.65 404.82, 996.40 405.39, 995.46 406.69 C 994.53 407.98, 993.89 408.82, 992.77 410.98 C 991.66 413.13, 991.12 414.75, 989.88 417.46 C 988.64 420.16, 987.89 421.78, 986.57 424.51 C 985.25 427.23, 984.34 428.67, 983.27 431.09 C 982.19 433.51, 981.70 434.78, 981.20 436.60 C 980.69 438.43, 980.76 439.15, 980.75 440.21 C 980.73 441.28, 980.84 441.52, 981.13 441.94 C 981.41 442.35, 981.70 442.42, 982.17 442.28 C 982.63 442.15, 982.79 442.01, 983.47 441.25 C 984.15 440.50, 984.62 440.05, 985.58 438.50 C 986.54 436.95, 987.06 435.79, 988.26 433.50 C 989.46 431.22, 990.16 429.74, 991.59 427.07 C 993.02 424.41, 994.02 422.88, 995.43 420.18 C 996.84 417.48, 997.73 415.96, 998.63 413.59 C 999.53 411.21, 999.75 410.03, 999.92 408.32 C 1000.09 406.62, 999.96 405.83, 999.47 405.06 C 998.97 404.30, 998.25 404.17, 997.45 404.50" style="stroke: black; fill: black;"/><path d="M 1017.29,368.58 C 1018.09 368.63, 1018.38 368.54, 1018.29 368.42 C 1018.20 368.30, 1017.51 368.15, 1016.84 367.97 C 1016.17 367.79, 1015.64 367.60, 1014.95 367.51 C 1014.26 367.42, 1013.52 367.41, 1013.38 367.54 C 1013.25 367.66, 1013.49 367.94, 1014.27 368.15 C 1015.05 368.36, 1016.49 368.52, 1017.29 368.58" style="stroke: black; fill: black;"/><path d="M 1040.53,395.57 C 1039.66 395.66, 1039.17 396.04, 1037.95 397.14 C 1036.73 398.23, 1035.86 398.96, 1034.42 401.05 C 1032.98 403.14, 1032.26 404.73, 1030.75 407.58 C 1029.24 410.42, 1028.39 412.17, 1026.88 415.27 C 1025.37 418.37, 1024.41 420.03, 1023.20 423.06 C 1021.99 426.09, 1021.32 427.65, 1020.82 430.42 C 1020.32 433.19, 1020.27 434.58, 1020.70 436.91 C 1021.12 439.24, 1021.57 440.37, 1022.94 442.08 C 1024.31 443.78, 1025.32 444.55, 1027.53 445.43 C 1029.75 446.31, 1031.18 446.62, 1034.03 446.49 C 1036.88 446.36, 1038.50 445.89, 1041.77 444.77 C 1045.04 443.64, 1046.81 442.72, 1050.39 440.86 C 1053.97 439.00, 1055.95 437.85, 1059.65 435.44 C 1063.35 433.04, 1065.32 431.64, 1068.88 428.84 C 1072.45 426.03, 1074.27 424.39, 1077.46 421.42 C 1080.65 418.46, 1082.21 416.80, 1084.83 414.01 C 1087.45 411.22, 1088.91 409.92, 1090.56 407.47 C 1092.21 405.02, 1092.84 403.48, 1093.07 401.75 C 1093.31 400.02, 1092.82 399.10, 1091.74 398.82 C 1090.65 398.53, 1089.34 398.83, 1087.65 400.32 C 1085.96 401.81, 1084.96 403.31, 1083.28 406.25 C 1081.61 409.20, 1080.80 411.44, 1079.28 415.03 C 1077.76 418.62, 1076.88 420.72, 1075.70 424.22 C 1074.51 427.73, 1073.84 429.42, 1073.35 432.54 C 1072.86 435.66, 1072.82 437.18, 1073.23 439.81 C 1073.65 442.44, 1074.12 443.66, 1075.41 445.68 C 1076.69 447.71, 1077.64 448.64, 1079.66 449.94 C 1081.67 451.25, 1083.20 451.74, 1085.49 452.20 C 1087.78 452.66, 1089.23 452.57, 1091.11 452.23 C 1092.99 451.90, 1094.17 451.28, 1094.89 450.52 C 1095.62 449.76, 1095.48 449.09, 1094.73 448.44 C 1093.99 447.80, 1092.80 447.69, 1091.17 447.31 C 1089.54 446.93, 1088.40 446.89, 1086.58 446.55 C 1084.75 446.21, 1083.56 446.27, 1082.05 445.62 C 1080.54 444.98, 1079.92 444.60, 1079.05 443.32 C 1078.18 442.04, 1077.91 441.22, 1077.71 439.22 C 1077.52 437.22, 1077.62 436.02, 1078.08 433.32 C 1078.54 430.62, 1078.89 428.96, 1080.03 425.72 C 1081.17 422.48, 1082.10 420.43, 1083.79 417.13 C 1085.49 413.84, 1086.90 412.01, 1088.50 409.24 C 1090.10 406.47, 1091.05 405.17, 1091.78 403.27 C 1092.51 401.37, 1092.50 400.35, 1092.15 399.74 C 1091.80 399.13, 1091.16 399.24, 1090.03 400.21 C 1088.89 401.18, 1088.11 402.37, 1086.47 404.60 C 1084.83 406.83, 1084.12 408.54, 1081.82 411.38 C 1079.52 414.21, 1077.99 415.86, 1074.96 418.78 C 1071.93 421.71, 1070.14 423.32, 1066.67 426.01 C 1063.20 428.69, 1061.25 430.02, 1057.62 432.22 C 1053.99 434.41, 1051.99 435.46, 1048.52 436.99 C 1045.05 438.53, 1043.25 439.12, 1040.28 439.91 C 1037.31 440.70, 1035.94 440.75, 1033.67 440.95 C 1031.41 441.14, 1030.48 441.19, 1028.97 440.89 C 1027.46 440.59, 1026.90 440.36, 1026.12 439.46 C 1025.33 438.55, 1025.13 437.96, 1025.05 436.36 C 1024.98 434.76, 1025.19 433.74, 1025.75 431.46 C 1026.31 429.17, 1026.74 427.72, 1027.87 424.95 C 1029.01 422.19, 1029.84 420.51, 1031.42 417.62 C 1033.01 414.73, 1034.13 413.15, 1035.80 410.51 C 1037.48 407.87, 1038.58 406.58, 1039.80 404.42 C 1041.02 402.25, 1041.40 401.24, 1041.89 399.69 C 1042.38 398.15, 1042.53 397.51, 1042.26 396.69 C 1041.99 395.87, 1041.39 395.48, 1040.53 395.57" style="stroke: black; fill: black;"/></svg>