<?xml version="1.0" encoding="UTF-8" standalone="no"?>
<!-- Created with Inkscape (http://www.inkscape.org/) -->

<svg
   version="1.1"
   id="svg1"
   width="853.33331"
   height="318.66666"
   viewBox="0 0 853.33331 318.66666"
   xmlns="http://www.w3.org/2000/svg"
   xmlns:svg="http://www.w3.org/2000/svg">
  <defs
     id="defs1" />
  <g
     id="g1">
    <path
       style="fill:none;stroke:#ffffff;stroke-width:2;stroke-linejoin:round;stroke-linecap:round"
       d="M 63.440243,247.69439 C 52.777589,243.91287 42.305361,234.10722 36.705389,222.66132 L 31.804926,212.6451 31.043863,192.76238 C 29.645898,156.2399 46.267427,85.080909 54.584181,91.983186 c 1.647128,1.367004 3.338889,0.707712 6.316181,-2.461458 18.979882,-20.203178 59.290528,-5.117149 71.152878,26.628562 15.03005,40.22292 13.6644,70.60568 -4.77048,106.13405 -0.31049,0.59839 2.26933,4.47989 5.73294,8.62557 6.20869,7.4313 7.92698,13.10518 4.59285,15.16578 -0.93754,0.57943 -2.92421,-1.17598 -4.41483,-3.90092 -1.49062,-2.72492 -4.3351,-6.85349 -6.32106,-9.17457 l -3.61083,-4.22013 -7.82177,7.20985 c -13.3373,12.29389 -35.972177,17.38872 -51.999817,11.70447 z m 29.897111,-6.08081 c 26.625176,-7.39503 29.811526,-19.66271 8.871356,-34.15548 -5.487623,-3.79801 -7.175103,-5.90005 -5.822423,-7.25274 2.62392,-2.62392 9.556483,1.27937 18.973313,10.68266 l 7.50686,7.49607 4.50629,-10.16674 c 15.04121,-33.93481 7.71995,-95.25841 -12.83678,-107.52199 -3.5093,-2.093567 -8.38354,-5.612478 -10.83164,-7.819842 -11.939276,-10.765129 -29.252824,-9.176432 -40.610381,3.726451 -3.861149,4.386481 -7.885906,7.975441 -8.943898,7.975441 -1.058002,0 -3.876271,6.20929 -6.262839,13.79842 -25.976315,82.60308 -5.74607,137.45726 45.450142,123.23775 z m 92.267316,-36.23353 v -30.9501 l -3.56089,-0.93117 c -4.65648,-1.21771 -4.55157,-4.27106 0.19853,-5.77869 7.36468,-2.33746 8.48824,1.6827 8.72555,31.22074 0.30688,38.19397 0.36482,37.38929 -2.69253,37.38929 h -2.67066 z m 111.09574,19.28551 c -24.75232,-12.40827 -31.05573,-83.11117 -10.94078,-122.71901 5.88856,-11.595022 12.33016,-20.514888 14.81508,-20.514888 4.56034,0 4.64005,3.922061 0.17477,8.601778 -13.54199,14.19242 -20.68384,40.66857 -20.74612,76.90967 l -0.0352,20.52531 6.04044,12.41287 c 8.20763,16.86639 10.2898,19.22213 18.82716,21.30082 4.0541,0.98708 7.52847,2.59589 7.72084,3.57514 0.57707,2.93771 -9.93427,2.87692 -15.85611,-0.0917 z m 253.19389,-2.27284 c -0.50114,-0.81087 3.92213,-6.21896 9.82953,-12.01799 18.8281,-18.48271 23.90401,-33.79522 21.08382,-63.60378 -3.07369,-32.48834 -9.54086,-54.622568 -20.6991,-70.843789 -6.82703,-9.924773 -6.07168,-16.101284 1.03608,-8.472 22.8056,24.478943 34.20487,96.097379 19.91547,125.123279 -7.59244,15.42244 -27.99677,34.9419 -31.1658,29.81428 z M 366.16374,201.74941 c -6.27186,-2.7307 -16.13547,-14.19515 -22.33015,-25.95432 l -4.22067,-8.01199 0.22195,-16.02398 c 0.46659,-33.68447 17.01129,-73.888344 30.40653,-73.888344 10.77441,0 19.60012,15.142511 12.33835,21.169247 -3.31238,2.749037 -7.42212,-1.698298 -4.3803,-4.740131 2.69781,-2.69779 -2.74571,-11.087793 -7.1939,-11.087793 -15.19893,0 -31.96272,68.506221 -21.86708,89.361051 11.66389,24.09436 24.38984,30.13976 36.76593,17.46548 7.00827,-7.17709 11.57289,-9.07525 11.57289,-4.81244 0,2.69879 -11.59354,14.17316 -17.24226,17.06504 -4.92095,2.51927 -7.2462,2.42974 -14.07129,-0.54182 z m 41.34674,-4.19944 c -0.53667,-0.86837 -0.23584,-16.73434 0.66854,-35.25773 0.90438,-18.52337 1.67066,-46.29775 1.70285,-61.72082 l 0.0585,-28.041967 h 3.75909 3.75908 l -1.31762,40.411087 -1.31763,40.41107 5.70714,-4.80224 c 7.37891,-6.20894 16.67079,-6.54841 20.47142,-0.74792 3.13916,4.79095 6.80033,43.98817 4.35254,46.59926 -3.4204,3.64863 -5.35361,-2.71371 -6.39104,-21.03342 -1.21784,-21.50538 -2.77071,-25.12636 -9.99765,-23.31252 -8.15562,2.04694 -13.75926,13.95767 -15.16457,32.23285 -1.08415,14.0987 -3.45493,19.85065 -6.29065,15.26235 z m 270.92359,-3.11659 c -0.52061,-0.5206 -0.32651,-4.3263 0.43136,-8.45709 1.08433,-5.91027 3.18952,-61.30013 4.24301,-111.637973 0.0961,-4.593396 0.99851,-6.371457 3.47734,-6.851842 l 3.34751,-0.648717 -1.1576,43.350912 c -0.6367,23.84298 -1.63224,50.6924 -2.21233,59.66534 l -1.05471,16.31444 14.88878,-0.90176 c 8.18883,-0.49597 19.12032,-1.51085 24.29218,-2.25527 9.39484,-1.35229 13.27902,0.19074 9.64012,3.82964 -1.00842,1.00842 -11.50018,2.50518 -23.315,3.32614 -11.81483,0.82096 -23.04551,2.32967 -24.95706,3.35271 -3.85132,2.06116 -6.19509,2.342 -7.6236,0.91347 z m 66.85619,-17.30296 c 0.61751,-5.14102 1.1297,-14.75541 1.13822,-21.3653 0.012,-9.42001 0.58547,-12.01799 2.65222,-12.01799 3.74546,0 5.11049,7.34425 3.74175,20.13147 -1.99662,18.65305 -3.03285,22.59914 -5.93441,22.59914 h -2.72053 z m -269.56988,4.3975 c -11.8479,-5.91347 -15.37496,-20.37811 -8.36074,-34.28777 l 4.006,-7.94412 7.46928,-0.54272 c 18.81923,-1.36739 17.07797,17.87616 -2.24994,24.86523 -7.1755,2.59469 -7.61113,4.80386 -1.98882,10.08576 5.22256,4.90634 10.31859,4.79575 22.5722,-0.48981 5.37832,-2.31992 10.38582,-3.84285 11.12778,-3.3843 3.23025,1.9964 0.7181,4.65637 -7.99832,8.46902 -14.1094,6.17158 -17.72866,6.64704 -24.57744,3.22871 z m 5.8828,-27.50909 c 6.19693,-4.29362 6.25395,-8.08263 0.14473,-9.61596 -5.59659,-1.40467 -11.27249,4.16351 -11.27249,11.05849 0,4.74389 2.70508,4.39321 11.12776,-1.44253 z m 298.44208,27.73826 c -1.80719,-2.17449 -2.44357,-9.24566 -2.44357,-27.15175 v -24.21152 h 2.67067 2.67066 l 0.50139,23.113 c 0.27576,12.71214 1.13629,23.74791 1.91231,24.52393 1.46939,1.46938 17.09211,-31.65676 20.78682,-44.07605 2.35492,-7.91575 7.43032,-9.99947 6.50504,-2.67066 -3.86842,30.64041 -1.89982,43.92968 6.76413,45.66246 6.84105,1.36822 7.16905,5.97035 0.42554,5.97035 -7.33607,0 -12.55254,-4.5272 -13.90671,-12.06915 -2.12085,-11.81211 -3.33284,-11.64112 -9.62112,1.35741 -6.39896,13.22728 -10.97652,15.91553 -16.26516,9.55198 z m -260.60768,-5.86471 c -17.90158,-7.32697 -14.01149,-45.52331 4.58246,-44.99464 20.31967,0.57773 15.08628,25.3125 -5.35564,25.3125 -5.43303,0 -4.46914,-4.72283 1.2183,-5.96925 2.69291,-0.59014 6.85971,-2.61773 9.25954,-4.50575 l 4.36336,-3.43275 -2.35581,-2.83855 c -6.48984,-7.8198 -15.88409,-0.29441 -17.49711,14.0163 l -0.89059,7.9013 5.42633,5.42633 c 6.38121,6.3812 8.80611,6.5775 23.76001,1.92331 7.25145,-2.25689 11.86799,-2.89025 12.97781,-1.78043 5.54239,5.54239 -24.99514,13.23654 -35.48866,8.94163 z m -324.35341,-40.3307 c -0.60026,-1.56426 -4.71321,-4.39661 -9.13988,-6.2941 -5.81613,-2.49308 -7.50938,-3.98906 -6.10486,-5.39359 4.29326,-4.29324 24.17033,7.45825 21.07811,12.46155 -1.81075,2.92987 -4.55165,2.56626 -5.83337,-0.77386 z m 551.71589,-9.97506 c -2.75385,-2.75383 -2.7834,-9.05848 -0.0382,-8.14341 1.15411,0.3847 2.93879,2.03181 3.96599,3.66025 2.46512,3.90803 -0.78887,7.62209 -3.92779,4.48316 z"
       id="path5" />
  </g>
</svg>
