<?xml version="1.0" encoding="utf-8"?>
<svg xmlns="http://www.w3.org/2000/svg" viewBox="19.081 160.059 459.907 84.243" width="459.907px" height="84.243px"><path d="M 35.692 229.233 C 33.557 229.233 31.487 229.028 29.483 228.62 C 27.479 228.211 25.706 227.611 24.163 226.821 C 22.621 226.029 21.388 225.04 20.465 223.854 C 19.542 222.668 19.081 221.297 19.081 219.741 C 19.081 218.291 19.43 217.038 20.129 215.984 C 20.828 214.929 21.744 214.046 22.878 213.334 C 24.012 212.622 25.278 212.081 26.675 211.712 C 28.072 211.342 29.483 211.105 30.907 211 C 28.296 208.126 26.299 204.949 24.915 201.469 C 23.53 197.988 22.838 194.112 22.838 189.841 C 22.838 186.993 23.181 184.296 23.867 181.752 C 24.552 179.208 25.521 176.868 26.774 174.732 C 28.026 172.596 29.529 170.665 31.282 168.938 C 33.035 167.21 34.98 165.754 37.116 164.568 C 39.252 163.381 41.553 162.465 44.018 161.819 C 46.483 161.173 49.034 160.85 51.671 160.85 C 55.758 160.85 59.482 161.515 62.844 162.847 C 66.206 164.179 69.093 166.057 71.506 168.483 C 73.918 170.909 75.79 173.829 77.122 177.244 C 78.453 180.658 79.119 184.435 79.119 188.575 C 79.119 192.451 78.572 196.182 77.478 199.768 C 76.383 203.354 74.841 206.682 72.85 209.754 C 70.859 212.826 68.473 215.608 65.692 218.1 C 62.91 220.591 59.831 222.68 56.456 224.368 C 58.355 226.346 60.24 228.31 62.112 230.262 C 63.984 232.212 65.915 233.972 67.906 235.542 C 69.897 237.11 71.993 238.376 74.195 239.338 C 76.396 240.3 78.789 240.782 81.373 240.782 C 83.008 240.782 84.571 240.525 86.06 240.011 C 87.55 239.497 88.967 238.686 90.312 237.578 L 91.182 238.528 C 91.155 238.554 91.017 238.712 90.767 239.002 C 90.516 239.292 90.141 239.654 89.64 240.09 C 89.139 240.524 88.525 240.986 87.8 241.474 C 87.075 241.962 86.238 242.417 85.289 242.839 C 84.34 243.26 83.285 243.609 82.125 243.887 C 80.965 244.163 79.699 244.302 78.328 244.302 C 76.429 244.302 74.683 244.038 73.088 243.511 C 71.493 242.983 69.996 242.258 68.599 241.336 C 67.201 240.412 65.882 239.331 64.643 238.093 C 63.404 236.853 62.205 235.535 61.044 234.137 C 59.884 232.739 58.737 231.296 57.603 229.807 C 56.47 228.317 55.323 226.847 54.162 225.397 C 51.367 226.636 48.428 227.585 45.343 228.244 C 42.258 228.903 39.041 229.233 35.692 229.233 Z M 26.793 189.841 C 26.793 194.507 27.353 198.535 28.474 201.923 C 29.595 205.311 31.276 208.337 33.517 211 C 35.732 211.079 37.815 211.461 39.766 212.147 C 41.717 212.833 43.576 213.716 45.343 214.797 C 47.11 215.878 48.79 217.13 50.385 218.554 C 51.98 219.978 53.543 221.454 55.072 222.984 C 58.078 221.349 60.754 219.325 63.101 216.913 C 65.448 214.5 67.438 211.797 69.073 208.805 C 70.708 205.812 71.954 202.582 72.811 199.115 C 73.668 195.647 74.096 192.042 74.096 188.298 C 74.096 184.184 73.529 180.519 72.395 177.303 C 71.262 174.086 69.693 171.37 67.689 169.156 C 65.685 166.94 63.319 165.259 60.59 164.113 C 57.861 162.965 54.914 162.392 51.75 162.392 C 48.032 162.392 44.637 163.044 41.566 164.35 C 38.494 165.655 35.864 167.507 33.675 169.907 C 31.486 172.306 29.792 175.193 28.593 178.569 C 27.393 181.943 26.793 185.701 26.793 189.841 Z M 41.111 219.345 C 38.158 217.499 35.494 215.469 33.121 213.255 C 31.408 213.281 29.958 213.498 28.771 213.907 C 27.584 214.315 26.615 214.836 25.864 215.47 C 25.113 216.102 24.566 216.807 24.223 217.585 C 23.88 218.363 23.708 219.134 23.708 219.899 C 23.708 220.901 24.018 221.863 24.638 222.786 C 25.257 223.709 26.134 224.52 27.268 225.219 C 28.402 225.917 29.78 226.478 31.401 226.9 C 33.022 227.322 34.835 227.533 36.839 227.533 C 39.872 227.533 42.733 227.236 45.422 226.643 C 48.111 226.049 50.656 225.186 53.055 224.052 C 51.921 222.734 50.741 221.481 49.515 220.295 C 48.289 219.108 46.977 218.04 45.58 217.091 C 44.183 216.141 42.686 215.35 41.091 214.718 C 39.496 214.085 37.749 213.65 35.85 213.413 C 36.747 214.257 37.703 215.074 38.718 215.865 C 39.733 216.656 40.808 217.434 41.941 218.199 L 41.111 219.345 Z M 93.141 215.628 C 91.48 215.628 90.103 214.955 89.008 213.611 C 87.914 212.266 87.367 210.236 87.367 207.52 C 87.367 205.726 87.729 203.439 88.454 200.658 C 89.179 197.876 90.439 194.731 92.232 191.225 L 93.695 191.62 C 93.537 192.306 93.28 193.242 92.924 194.429 C 92.568 195.615 92.212 196.939 91.856 198.403 C 91.5 199.866 91.19 201.395 90.926 202.991 C 90.663 204.586 90.531 206.122 90.531 207.599 C 90.531 208.838 90.623 209.847 90.808 210.625 C 90.993 211.402 91.236 212.008 91.539 212.444 C 91.842 212.878 92.198 213.175 92.607 213.334 C 93.016 213.492 93.457 213.571 93.932 213.571 C 94.697 213.571 95.422 213.333 96.108 212.859 C 96.793 212.384 97.446 211.758 98.065 210.981 C 98.685 210.203 99.265 209.332 99.806 208.37 C 100.346 207.408 100.834 206.439 101.269 205.463 C 101.704 204.487 102.093 203.558 102.436 202.675 C 102.779 201.791 103.055 201.033 103.266 200.401 L 104.809 200.796 C 104.519 201.587 104.183 202.503 103.8 203.545 C 103.418 204.586 102.983 205.66 102.495 206.768 C 102.007 207.875 101.46 208.956 100.854 210.012 C 100.247 211.066 99.562 212.009 98.797 212.839 C 98.032 213.669 97.182 214.342 96.246 214.856 C 95.31 215.37 94.275 215.628 93.141 215.628 Z M 99.548 178.766 C 99.548 179.689 99.192 180.401 98.481 180.902 C 97.769 181.403 96.872 181.654 95.791 181.654 C 95.238 181.654 94.717 181.568 94.229 181.397 C 93.741 181.225 93.319 181 92.963 180.724 C 92.607 180.447 92.33 180.117 92.133 179.735 C 91.935 179.353 91.836 178.951 91.836 178.529 C 91.836 177.632 92.185 176.907 92.884 176.354 C 93.583 175.8 94.394 175.523 95.317 175.523 C 95.976 175.523 96.569 175.622 97.096 175.82 C 97.623 176.017 98.072 176.274 98.441 176.591 C 98.81 176.907 99.087 177.257 99.272 177.639 C 99.456 178.021 99.548 178.397 99.548 178.766 Z M 97.413 178.766 C 97.413 178.502 97.301 178.259 97.077 178.035 C 96.852 177.811 96.516 177.699 96.068 177.699 C 95.251 177.699 94.842 178.002 94.842 178.608 C 94.842 178.898 94.967 179.142 95.218 179.34 C 95.468 179.538 95.804 179.637 96.226 179.637 C 96.621 179.637 96.918 179.551 97.116 179.379 C 97.314 179.207 97.413 179.003 97.413 178.766 Z M 157.11 163.183 C 157.083 163.209 156.708 163.539 155.983 164.172 C 155.258 164.804 154.361 165.747 153.293 167 C 152.225 168.252 151.071 169.815 149.832 171.687 C 148.593 173.559 147.46 175.754 146.431 178.272 C 145.403 180.79 144.559 183.631 143.9 186.795 C 143.241 189.959 142.951 193.439 143.03 197.237 C 143.083 201.033 143.445 204.461 144.117 207.52 C 144.79 210.578 145.601 213.287 146.55 215.647 C 147.499 218.007 148.528 220.044 149.635 221.758 C 150.742 223.472 151.764 224.876 152.7 225.97 C 153.636 227.064 154.414 227.875 155.033 228.403 C 155.653 228.93 155.976 229.207 156.002 229.233 L 155.014 230.42 C 154.935 230.367 154.493 230.05 153.689 229.47 C 152.884 228.89 151.895 228.033 150.722 226.9 C 149.549 225.766 148.283 224.315 146.925 222.549 C 145.568 220.782 144.302 218.686 143.129 216.261 C 141.956 213.835 140.96 211.04 140.142 207.876 C 139.325 204.712 138.877 201.165 138.798 197.237 C 138.719 193.308 139.088 189.702 139.905 186.419 C 140.722 183.136 141.777 180.196 143.069 177.6 C 144.361 175.002 145.765 172.728 147.281 170.777 C 148.798 168.825 150.215 167.197 151.533 165.893 C 152.852 164.587 153.959 163.605 154.855 162.946 C 155.752 162.286 156.213 161.944 156.24 161.918 L 157.11 163.183 Z M 206.696 164.014 C 205.879 164.304 205.074 164.627 204.283 164.983 C 203.492 165.339 202.728 165.714 201.989 166.11 C 203.466 167.376 204.659 168.945 205.569 170.817 C 206.478 172.689 206.933 174.851 206.933 177.303 C 206.933 179.307 206.676 181.152 206.162 182.84 C 205.648 184.527 204.929 185.977 204.006 187.191 C 203.083 188.403 201.996 189.352 200.743 190.038 C 199.491 190.724 198.127 191.067 196.65 191.067 C 195.569 191.067 194.501 190.882 193.446 190.513 C 192.391 190.143 191.449 189.576 190.618 188.812 C 189.787 188.047 189.115 187.091 188.601 185.945 C 188.087 184.797 187.83 183.433 187.83 181.851 C 187.83 180.084 188.12 178.403 188.7 176.809 C 189.28 175.213 190.064 173.737 191.053 172.379 C 192.042 171.021 193.196 169.781 194.514 168.661 C 195.833 167.54 197.217 166.558 198.667 165.715 C 197.902 165.345 197.078 165.049 196.195 164.825 C 195.312 164.601 194.409 164.489 193.486 164.489 C 191.877 164.489 190.163 164.792 188.344 165.398 C 186.525 166.004 184.725 166.914 182.945 168.127 C 181.166 169.34 179.465 170.836 177.843 172.616 C 176.222 174.396 174.785 176.472 173.532 178.845 C 172.28 181.218 171.285 183.868 170.546 186.795 C 169.808 189.721 169.439 192.925 169.439 196.406 C 169.439 199.939 169.953 203.288 170.981 206.452 C 172.01 209.616 173.513 212.397 175.49 214.797 C 177.467 217.196 179.9 219.094 182.787 220.492 C 185.674 221.89 188.977 222.589 192.695 222.589 C 194.857 222.589 196.973 222.266 199.043 221.62 C 201.112 220.974 203.07 220.077 204.916 218.93 C 206.762 217.783 208.463 216.412 210.018 214.817 C 211.573 213.221 212.918 211.488 214.052 209.616 L 215.278 210.328 C 214.013 212.674 212.49 214.77 210.71 216.616 C 208.93 218.462 206.959 220.031 204.797 221.323 C 202.635 222.615 200.328 223.603 197.876 224.289 C 195.424 224.975 192.906 225.318 190.322 225.318 C 186.604 225.318 183.176 224.665 180.039 223.36 C 176.901 222.054 174.192 220.202 171.911 217.803 C 169.63 215.403 167.85 212.51 166.571 209.122 C 165.292 205.733 164.653 201.956 164.653 197.79 C 164.653 194.02 165.062 190.546 165.879 187.369 C 166.696 184.191 167.817 181.311 169.241 178.727 C 170.665 176.143 172.32 173.868 174.205 171.904 C 176.09 169.94 178.101 168.292 180.236 166.96 C 182.372 165.628 184.574 164.627 186.841 163.955 C 189.109 163.282 191.324 162.946 193.486 162.946 C 194.673 162.946 195.839 163.124 196.986 163.48 C 198.133 163.836 199.207 164.317 200.209 164.924 C 201.264 164.422 202.318 164.014 203.373 163.698 C 204.428 163.381 205.456 163.13 206.458 162.946 L 206.696 164.014 Z M 205.391 177.224 C 205.391 175.062 204.962 173.104 204.105 171.351 C 203.248 169.597 202.082 168.153 200.605 167.02 C 199.313 167.863 198.107 168.832 196.986 169.927 C 195.865 171.021 194.896 172.233 194.079 173.565 C 193.262 174.897 192.622 176.347 192.161 177.916 C 191.7 179.484 191.469 181.165 191.469 182.959 C 191.469 183.908 191.594 184.785 191.844 185.589 C 192.095 186.393 192.457 187.085 192.932 187.665 C 193.407 188.245 193.987 188.7 194.672 189.03 C 195.358 189.359 196.123 189.524 196.966 189.524 C 198.39 189.524 199.629 189.115 200.684 188.298 C 201.739 187.48 202.615 186.459 203.314 185.233 C 204.013 184.007 204.533 182.675 204.876 181.238 C 205.219 179.801 205.391 178.463 205.391 177.224 Z M 235.12 175.128 C 235.12 176.788 234.836 178.647 234.269 180.704 C 233.702 182.76 232.931 185.002 231.955 187.428 C 230.98 189.854 229.839 192.457 228.534 195.239 C 227.229 198.021 225.839 200.954 224.362 204.039 C 224.23 205.305 224.118 206.577 224.026 207.856 C 223.933 209.134 223.847 210.42 223.768 211.712 C 224.111 210.842 224.54 209.833 225.054 208.687 C 225.568 207.539 226.148 206.353 226.794 205.127 C 227.44 203.901 228.145 202.694 228.91 201.508 C 229.675 200.321 230.485 199.26 231.342 198.324 C 232.199 197.388 233.109 196.63 234.071 196.05 C 235.034 195.47 236.029 195.18 237.058 195.18 C 237.769 195.18 238.415 195.311 238.996 195.575 C 239.576 195.839 240.07 196.208 240.479 196.683 C 240.888 197.157 241.204 197.711 241.428 198.344 C 241.652 198.976 241.764 199.662 241.764 200.401 C 241.764 201.35 241.639 202.372 241.388 203.466 C 241.138 204.56 240.855 205.674 240.538 206.808 C 240.221 207.942 239.938 209.075 239.688 210.209 C 239.437 211.343 239.312 212.411 239.312 213.413 C 239.312 214.23 239.51 214.922 239.905 215.489 C 240.3 216.056 241.025 216.34 242.08 216.34 C 242.819 216.34 243.544 216.036 244.256 215.43 C 244.968 214.823 245.653 214.039 246.312 213.077 C 246.971 212.114 247.585 211.033 248.152 209.834 C 248.719 208.634 249.246 207.44 249.734 206.254 C 250.221 205.067 250.656 203.953 251.039 202.912 C 251.421 201.87 251.731 201.033 251.968 200.401 L 253.511 200.796 C 253.062 201.982 252.601 203.235 252.126 204.554 C 251.651 205.872 251.144 207.183 250.604 208.489 C 250.063 209.794 249.477 211.04 248.844 212.226 C 248.211 213.412 247.518 214.461 246.767 215.371 C 246.016 216.28 245.192 217.005 244.295 217.546 C 243.399 218.086 242.397 218.357 241.289 218.357 C 240.288 218.357 239.457 218.212 238.798 217.922 C 238.139 217.632 237.618 217.236 237.236 216.735 C 236.853 216.234 236.583 215.634 236.425 214.936 C 236.266 214.236 236.187 213.465 236.187 212.622 C 236.187 211.725 236.319 210.703 236.583 209.557 C 236.846 208.409 237.143 207.223 237.473 205.997 C 237.802 204.771 238.099 203.545 238.363 202.319 C 238.626 201.093 238.758 199.965 238.758 198.937 C 238.758 198.357 238.62 197.843 238.343 197.395 C 238.066 196.946 237.585 196.722 236.899 196.722 C 235.818 196.722 234.777 197.111 233.775 197.889 C 232.773 198.667 231.824 199.675 230.927 200.915 C 230.03 202.154 229.187 203.551 228.396 205.107 C 227.605 206.663 226.88 208.212 226.221 209.754 C 225.562 211.296 224.975 212.766 224.461 214.164 C 223.946 215.562 223.505 216.722 223.136 217.645 L 221.593 217.408 C 221.593 217.276 221.586 217.098 221.573 216.874 C 221.56 216.649 221.554 216.339 221.554 215.944 C 221.554 215.548 221.547 215.054 221.534 214.461 C 221.521 213.867 221.514 213.149 221.514 212.305 C 221.514 209.827 221.58 206.557 221.712 202.497 C 221.844 198.436 222.16 193.571 222.661 187.903 C 222.872 185.134 223.188 182.767 223.61 180.803 C 224.032 178.839 224.507 177.191 225.034 175.859 C 225.561 174.527 226.122 173.466 226.715 172.676 C 227.308 171.884 227.882 171.284 228.435 170.876 C 228.989 170.467 229.503 170.203 229.978 170.085 C 230.453 169.966 230.848 169.907 231.164 169.907 C 232.377 169.907 233.34 170.381 234.052 171.331 C 234.764 172.28 235.12 173.546 235.12 175.128 Z M 231.244 171.529 C 230.558 171.529 229.945 171.865 229.404 172.537 C 228.864 173.209 228.376 174.159 227.941 175.385 C 227.506 176.611 227.131 178.081 226.814 179.795 C 226.497 181.509 226.207 183.414 225.944 185.51 C 225.68 187.606 225.449 189.86 225.252 192.273 C 225.054 194.685 224.863 197.197 224.678 199.807 C 225.917 197.434 227.071 195.081 228.139 192.748 C 229.207 190.414 230.136 188.179 230.927 186.044 C 231.718 183.908 232.345 181.91 232.806 180.052 C 233.267 178.192 233.498 176.551 233.498 175.128 C 233.498 174.706 233.465 174.277 233.399 173.842 C 233.333 173.407 233.214 173.018 233.043 172.676 C 232.872 172.332 232.641 172.055 232.351 171.845 C 232.061 171.634 231.692 171.529 231.244 171.529 Z M 263.227 219.187 C 261.882 219.187 260.59 218.949 259.351 218.475 C 258.112 218 257.025 217.282 256.088 216.32 C 255.152 215.357 254.407 214.151 253.854 212.701 C 253.3 211.251 253.023 209.55 253.023 207.599 C 253.023 205.225 253.366 203.109 254.052 201.251 C 254.737 199.392 255.614 197.823 256.682 196.544 C 257.75 195.265 258.943 194.29 260.261 193.618 C 261.58 192.945 262.872 192.609 264.137 192.609 C 265.772 192.609 267.07 193.149 268.033 194.231 C 268.995 195.311 269.476 196.709 269.476 198.423 C 269.476 199.899 269.199 201.238 268.646 202.438 C 268.092 203.637 267.36 204.665 266.451 205.522 C 265.541 206.379 264.499 207.045 263.326 207.52 C 262.153 207.994 260.933 208.232 259.668 208.232 C 259.061 208.232 258.488 208.199 257.947 208.133 C 257.407 208.067 256.926 207.994 256.504 207.915 C 256.662 209.549 256.978 210.96 257.453 212.147 C 257.928 213.333 258.521 214.309 259.233 215.074 C 259.945 215.838 260.743 216.405 261.626 216.775 C 262.509 217.143 263.425 217.328 264.374 217.328 C 265.561 217.328 266.655 217.038 267.657 216.458 C 268.659 215.878 269.582 215.12 270.426 214.184 C 271.269 213.248 272.04 212.173 272.739 210.961 C 273.438 209.747 274.064 208.515 274.618 207.263 C 275.172 206.01 275.666 204.784 276.101 203.585 C 276.536 202.385 276.925 201.323 277.268 200.401 L 278.81 200.796 C 278.467 201.666 278.065 202.72 277.604 203.96 C 277.143 205.199 276.609 206.498 276.002 207.856 C 275.396 209.214 274.684 210.572 273.867 211.93 C 273.049 213.288 272.126 214.5 271.098 215.568 C 270.07 216.636 268.903 217.506 267.598 218.179 C 266.293 218.851 264.836 219.187 263.227 219.187 Z M 264.216 194.152 C 263.241 194.152 262.285 194.461 261.349 195.081 C 260.413 195.701 259.576 196.551 258.837 197.632 C 258.099 198.713 257.499 199.992 257.038 201.469 C 256.577 202.945 256.346 204.527 256.346 206.215 C 256.689 206.346 257.17 206.458 257.789 206.551 C 258.409 206.643 259.167 206.689 260.063 206.689 C 261.012 206.689 261.955 206.484 262.891 206.076 C 263.827 205.667 264.671 205.1 265.422 204.376 C 266.174 203.65 266.781 202.787 267.242 201.785 C 267.703 200.783 267.934 199.688 267.934 198.502 C 267.934 197.922 267.855 197.368 267.697 196.841 C 267.538 196.313 267.301 195.852 266.985 195.457 C 266.668 195.061 266.279 194.745 265.818 194.508 C 265.357 194.27 264.823 194.152 264.216 194.152 Z M 288.487 219.187 C 287.142 219.187 285.85 218.949 284.611 218.475 C 283.372 218 282.285 217.282 281.348 216.32 C 280.412 215.357 279.667 214.151 279.114 212.701 C 278.56 211.251 278.283 209.55 278.283 207.599 C 278.283 205.225 278.626 203.109 279.312 201.251 C 279.997 199.392 280.874 197.823 281.942 196.544 C 283.01 195.265 284.203 194.29 285.521 193.618 C 286.84 192.945 288.132 192.609 289.397 192.609 C 291.032 192.609 292.33 193.149 293.293 194.231 C 294.255 195.311 294.736 196.709 294.736 198.423 C 294.736 199.899 294.459 201.238 293.906 202.438 C 293.352 203.637 292.62 204.665 291.711 205.522 C 290.801 206.379 289.759 207.045 288.586 207.52 C 287.413 207.994 286.193 208.232 284.928 208.232 C 284.321 208.232 283.748 208.199 283.207 208.133 C 282.667 208.067 282.186 207.994 281.764 207.915 C 281.922 209.549 282.238 210.96 282.713 212.147 C 283.188 213.333 283.781 214.309 284.493 215.074 C 285.205 215.838 286.003 216.405 286.886 216.775 C 287.769 217.143 288.685 217.328 289.634 217.328 C 290.821 217.328 291.915 217.038 292.917 216.458 C 293.919 215.878 294.842 215.12 295.686 214.184 C 296.529 213.248 297.3 212.173 297.999 210.961 C 298.698 209.747 299.324 208.515 299.878 207.263 C 300.432 206.01 300.926 204.784 301.361 203.585 C 301.796 202.385 302.185 201.323 302.528 200.401 L 304.07 200.796 C 303.727 201.666 303.325 202.72 302.864 203.96 C 302.403 205.199 301.869 206.498 301.262 207.856 C 300.656 209.214 299.944 210.572 299.127 211.93 C 298.309 213.288 297.386 214.5 296.358 215.568 C 295.33 216.636 294.163 217.506 292.858 218.179 C 291.553 218.851 290.096 219.187 288.487 219.187 Z M 289.476 194.152 C 288.501 194.152 287.545 194.461 286.609 195.081 C 285.673 195.701 284.836 196.551 284.097 197.632 C 283.359 198.713 282.759 199.992 282.298 201.469 C 281.837 202.945 281.606 204.527 281.606 206.215 C 281.949 206.346 282.43 206.458 283.049 206.551 C 283.669 206.643 284.427 206.689 285.323 206.689 C 286.272 206.689 287.215 206.484 288.151 206.076 C 289.087 205.667 289.931 205.1 290.682 204.376 C 291.434 203.65 292.041 202.787 292.502 201.785 C 292.963 200.783 293.194 199.688 293.194 198.502 C 293.194 197.922 293.115 197.368 292.957 196.841 C 292.798 196.313 292.561 195.852 292.245 195.457 C 291.928 195.061 291.539 194.745 291.078 194.508 C 290.617 194.27 290.083 194.152 289.476 194.152 Z M 305.165 161.918 C 305.191 161.944 305.652 162.286 306.549 162.946 C 307.446 163.605 308.553 164.587 309.871 165.893 C 311.19 167.197 312.607 168.825 314.123 170.777 C 315.639 172.728 317.043 175.002 318.335 177.6 C 319.627 180.196 320.682 183.136 321.499 186.419 C 322.316 189.702 322.686 193.308 322.607 197.237 C 322.528 201.191 322.079 204.744 321.262 207.896 C 320.445 211.046 319.449 213.835 318.276 216.261 C 317.103 218.686 315.837 220.782 314.479 222.549 C 313.121 224.315 311.855 225.766 310.682 226.9 C 309.509 228.033 308.52 228.883 307.716 229.451 C 306.912 230.017 306.47 230.34 306.391 230.42 L 305.402 229.233 C 305.402 229.233 305.718 228.962 306.351 228.422 C 306.984 227.882 307.769 227.064 308.705 225.97 C 309.641 224.876 310.663 223.472 311.77 221.758 C 312.877 220.044 313.906 218.007 314.855 215.647 C 315.804 213.287 316.608 210.578 317.267 207.52 C 317.926 204.461 318.296 201.033 318.375 197.237 C 318.454 193.439 318.164 189.959 317.505 186.795 C 316.846 183.631 316.002 180.79 314.974 178.272 C 313.945 175.754 312.811 173.559 311.572 171.687 C 310.333 169.815 309.179 168.252 308.111 167 C 307.044 165.747 306.147 164.804 305.422 164.172 C 304.697 163.539 304.321 163.209 304.295 163.183 L 305.165 161.918 Z M 368.981 223.38 C 367.716 223.38 366.569 223.202 365.54 222.846 C 364.512 222.49 363.629 221.995 362.89 221.363 C 362.152 220.729 361.579 219.984 361.17 219.128 C 360.761 218.271 360.557 217.342 360.557 216.34 C 360.557 214.046 361.355 212.246 362.95 210.941 C 364.545 209.635 366.74 208.983 369.535 208.983 C 371.539 208.983 373.371 209.253 375.032 209.794 C 376.693 210.334 378.236 211.026 379.66 211.87 C 380.003 210.472 380.174 208.89 380.174 207.124 C 380.174 205.304 380.095 203.518 379.937 201.765 C 379.778 200.011 379.6 198.271 379.403 196.544 C 379.205 194.817 379.027 193.11 378.869 191.423 C 378.71 189.735 378.631 188.047 378.631 186.36 C 378.631 182.563 379 179.274 379.739 176.492 C 380.477 173.71 381.446 171.344 382.646 169.393 C 383.845 167.441 385.216 165.859 386.759 164.647 C 388.302 163.433 389.877 162.484 391.485 161.799 C 393.094 161.113 394.669 160.652 396.212 160.415 C 397.754 160.177 399.132 160.059 400.345 160.059 C 402.164 160.059 403.806 160.362 405.269 160.969 C 406.732 161.575 407.985 162.379 409.026 163.381 C 410.067 164.383 410.865 165.523 411.419 166.802 C 411.973 168.08 412.25 169.392 412.25 170.738 C 412.25 171.95 412.105 173.097 411.815 174.179 C 411.524 175.259 411.201 176.215 410.846 177.046 C 410.49 177.876 410.154 178.542 409.837 179.043 C 409.52 179.544 409.349 179.821 409.323 179.874 L 408.097 179.004 C 408.572 178.292 409.007 177.501 409.402 176.631 C 409.719 175.892 410.015 175.048 410.292 174.099 C 410.569 173.15 410.707 172.135 410.707 171.054 C 410.707 169.735 410.463 168.502 409.975 167.356 C 409.488 166.209 408.802 165.207 407.919 164.35 C 407.036 163.493 405.961 162.821 404.695 162.333 C 403.43 161.845 402.006 161.601 400.424 161.601 C 397.655 161.601 395.19 162.174 393.028 163.322 C 390.866 164.468 389.047 165.958 387.57 167.791 C 386.093 169.623 384.973 171.68 384.208 173.961 C 383.443 176.241 383.061 178.515 383.061 180.783 C 383.061 182.286 383.127 183.855 383.259 185.49 C 383.391 187.124 383.529 188.805 383.674 190.533 C 383.819 192.259 383.958 194.019 384.089 195.813 C 384.221 197.605 384.287 199.398 384.287 201.192 C 384.287 203.591 384.122 205.826 383.793 207.896 C 383.463 209.965 382.955 211.857 382.27 213.571 C 383.72 214.652 385.131 215.773 386.502 216.933 C 387.873 218.093 389.277 219.161 390.714 220.137 C 392.151 221.112 393.668 221.909 395.263 222.529 C 396.858 223.149 398.604 223.459 400.503 223.459 C 402.955 223.459 405.203 222.938 407.246 221.897 C 409.29 220.855 411.05 219.503 412.526 217.843 C 414.003 216.181 415.15 214.322 415.967 212.266 C 416.784 210.209 417.193 208.166 417.193 206.136 C 417.193 205.397 417.088 204.527 416.877 203.525 C 416.666 202.523 416.284 201.613 415.73 200.796 L 416.679 200.045 C 416.706 200.097 416.89 200.341 417.233 200.776 C 417.576 201.211 417.945 201.818 418.34 202.596 C 418.736 203.373 419.099 204.302 419.428 205.384 C 419.757 206.465 419.922 207.691 419.922 209.062 C 419.922 211.013 419.566 212.944 418.855 214.856 C 418.143 216.768 417.049 218.482 415.572 219.998 C 414.095 221.514 412.217 222.74 409.936 223.676 C 407.655 224.612 404.959 225.08 401.848 225.08 C 399.396 225.08 397.234 224.757 395.361 224.111 C 393.489 223.465 391.782 222.641 390.24 221.639 C 388.697 220.637 387.247 219.543 385.889 218.357 C 384.531 217.17 383.14 216.036 381.716 214.955 C 380.451 217.591 378.77 219.655 376.674 221.145 C 374.577 222.635 372.013 223.38 368.981 223.38 Z M 369.456 221.837 C 372.013 221.837 374.116 221.072 375.764 219.543 C 377.412 218.013 378.605 215.944 379.343 213.334 C 377.998 212.516 376.548 211.844 374.993 211.317 C 373.437 210.789 371.67 210.526 369.693 210.526 C 369.298 210.526 368.764 210.591 368.091 210.723 C 367.419 210.855 366.76 211.118 366.114 211.514 C 365.468 211.91 364.908 212.483 364.433 213.235 C 363.958 213.986 363.721 214.995 363.721 216.261 C 363.721 217.104 363.873 217.862 364.176 218.535 C 364.479 219.207 364.887 219.793 365.402 220.295 C 365.916 220.795 366.522 221.178 367.221 221.442 C 367.92 221.705 368.665 221.837 369.456 221.837 Z M 434.024 215.628 C 432.363 215.628 430.985 214.955 429.89 213.611 C 428.796 212.266 428.249 210.236 428.249 207.52 C 428.249 205.726 428.612 203.439 429.337 200.658 C 430.062 197.876 431.321 194.731 433.114 191.225 L 434.577 191.62 C 434.419 192.306 434.162 193.242 433.806 194.429 C 433.45 195.615 433.094 196.939 432.738 198.403 C 432.382 199.866 432.072 201.395 431.809 202.991 C 431.545 204.586 431.413 206.122 431.413 207.599 C 431.413 208.838 431.505 209.847 431.69 210.625 C 431.875 211.402 432.119 212.008 432.422 212.444 C 432.725 212.878 433.081 213.175 433.49 213.334 C 433.899 213.492 434.34 213.571 434.815 213.571 C 435.58 213.571 436.305 213.333 436.99 212.859 C 437.675 212.384 438.328 211.758 438.948 210.981 C 439.567 210.203 440.147 209.332 440.688 208.37 C 441.229 207.408 441.716 206.439 442.151 205.463 C 442.586 204.487 442.975 203.558 443.318 202.675 C 443.661 201.791 443.938 201.033 444.149 200.401 L 445.691 200.796 C 445.401 201.587 445.065 202.503 444.682 203.545 C 444.3 204.586 443.865 205.66 443.377 206.768 C 442.89 207.875 442.343 208.956 441.736 210.012 C 441.129 211.066 440.444 212.009 439.679 212.839 C 438.914 213.669 438.064 214.342 437.128 214.856 C 436.192 215.37 435.157 215.628 434.024 215.628 Z M 440.431 178.766 C 440.431 179.689 440.075 180.401 439.363 180.902 C 438.651 181.403 437.754 181.654 436.673 181.654 C 436.12 181.654 435.599 181.568 435.111 181.397 C 434.623 181.225 434.201 181 433.846 180.724 C 433.49 180.447 433.213 180.117 433.015 179.735 C 432.817 179.353 432.718 178.951 432.718 178.529 C 432.718 177.632 433.067 176.907 433.766 176.354 C 434.465 175.8 435.276 175.523 436.199 175.523 C 436.858 175.523 437.452 175.622 437.979 175.82 C 438.506 176.017 438.954 176.274 439.323 176.591 C 439.692 176.907 439.969 177.257 440.154 177.639 C 440.339 178.021 440.431 178.397 440.431 178.766 Z M 438.295 178.766 C 438.295 178.502 438.183 178.259 437.959 178.035 C 437.735 177.811 437.399 177.699 436.95 177.699 C 436.133 177.699 435.724 178.002 435.724 178.608 C 435.724 178.898 435.849 179.142 436.1 179.34 C 436.351 179.538 436.687 179.637 437.108 179.637 C 437.504 179.637 437.801 179.551 437.998 179.379 C 438.196 179.207 438.295 179.003 438.295 178.766 Z M 461.902 210.605 C 461.085 212.081 460.294 213.307 459.529 214.283 C 458.764 215.258 458.006 216.036 457.255 216.616 C 456.504 217.196 455.746 217.605 454.981 217.843 C 454.216 218.08 453.425 218.199 452.608 218.199 C 451.949 218.199 451.197 218.093 450.353 217.882 C 449.51 217.671 448.712 217.229 447.96 216.557 C 447.209 215.885 446.576 214.916 446.062 213.65 C 445.548 212.384 445.291 210.684 445.291 208.548 C 445.291 206.412 445.541 204.402 446.042 202.517 C 446.543 200.631 447.097 198.977 447.703 197.553 C 448.415 195.918 449.232 194.402 450.155 193.005 L 451.619 193.479 C 451.592 193.505 451.507 193.743 451.362 194.191 C 451.217 194.639 451.032 195.246 450.808 196.011 C 450.584 196.775 450.347 197.658 450.096 198.66 C 449.845 199.662 449.608 200.723 449.384 201.844 C 449.16 202.964 448.975 204.105 448.83 205.265 C 448.685 206.425 448.613 207.546 448.613 208.627 C 448.613 211.105 449.055 213.063 449.938 214.501 C 450.821 215.937 451.975 216.656 453.399 216.656 C 454.981 216.656 456.51 215.739 457.986 213.907 C 459.463 212.074 460.873 209.51 462.218 206.215 C 462.455 204.685 462.778 203.261 463.187 201.943 C 463.596 200.625 464.004 199.451 464.413 198.423 C 464.822 197.395 465.198 196.538 465.541 195.852 C 465.884 195.166 466.134 194.705 466.292 194.468 L 467.676 194.784 C 467.255 196.762 466.892 198.535 466.589 200.104 C 466.286 201.672 466.042 203.09 465.857 204.356 C 465.672 205.621 465.534 206.748 465.442 207.737 C 465.349 208.725 465.303 209.615 465.303 210.407 C 465.303 211.989 465.554 213.254 466.055 214.204 C 466.556 215.153 467.333 215.628 468.388 215.628 C 469.1 215.628 469.786 215.364 470.445 214.837 C 471.104 214.309 471.79 213.439 472.502 212.226 C 473.213 211.013 473.965 209.444 474.756 207.52 C 475.547 205.595 476.444 203.222 477.445 200.401 L 478.988 200.796 C 478.54 201.903 478.092 203.09 477.643 204.356 C 477.195 205.621 476.714 206.887 476.2 208.153 C 475.685 209.418 475.145 210.631 474.578 211.791 C 474.011 212.951 473.379 213.98 472.68 214.876 C 471.981 215.772 471.223 216.484 470.405 217.012 C 469.588 217.539 468.678 217.803 467.676 217.803 C 466.727 217.803 465.897 217.618 465.185 217.249 C 464.473 216.88 463.873 216.379 463.385 215.746 C 462.897 215.113 462.528 214.355 462.278 213.472 C 462.027 212.588 461.902 211.633 461.902 210.605 Z" style="fill: rgb(51, 51, 51); line-height: 48.8983px; text-wrap-mode: nowrap;" id="object-0"/></svg>