<svg xmlns="http://www.w3.org/2000/svg" xmlns:xlink="http://www.w3.org/1999/xlink" version="1.1" width="748" height="143"><g fill="none" fill-rule="nonzero" stroke="#000000" stroke-width="2.13" stroke-linecap="butt" stroke-linejoin="miter" stroke-miterlimit="10" stroke-dasharray="" stroke-dashoffset="0" font-family="none" font-weight="none" font-size="none" text-anchor="none" style="mix-blend-mode: normal" transform="scale(1.06)"><g><g id="text"><g id="text-line-0"><path d="M70.6,75.1l13.2,-9.1l9.1,-9.2l5.4,-9.1l1.87,-8.5l-2.87,-7.6l-8.2,-6.3l-15.7,-1.2l-19.8,3.8l-21.8,12.6l-16.4,16l-6.58,12.6l-3.78,11.1l0.63,10.98l2.83,9.135l5,4.725l12.3,3.15l13.9,-0.94l18.9,-5.99l18.6,-12.26l13.8,-13.6l5.4,-14.5l-1.6,-11.9l-8.2,-9.2l-8.8,-4.7l-7.9,-1.3l-11.3,1.3M10.7,110.7l0.6,-8.18l4.8,-8.19l6.6,-2.52l10.1,3.15l44.7,27.74l9.1,3.1l6,-2.2l1.9,-2.8l-0.6,-5"></path><path d="M112.78,67.2l-11.03,13l-5.98,12.56v6.925l6.295,2.835l12.615,-6.93l9.7,-10.09M120.68,53.4l0.3,3.4l3.1,-0.6v-1.9l-3.4,-0.9"></path><path d="M240.38,8.6l-23,6l-19.2,10.4l-16.1,14.8l-9.45,15.2l-4.41,13.2l-0.95,16.7l3.78,8.8l7.83,7.88l4.8,2.52l6.3,0.31"></path><path d="M274.68,42l-7.2,6.3l-1.6,5.1l0.3,3.8l3.2,4.7l6.3,3.5l9.1,0.3l8.8,-1.9l9.5,-6.6l6.3,-8.2l2.2,-7.3l-0.3,-6.9l-3.8,-6.9l-6.6,-3.8l-7.9,-2.2l-11,0.3l-19.6,6.3l-11.9,6.9l-12.9,11.4l-9.8,13.2l-4.41,12l-1.89,14.8l3.15,9.74l6.65,7.24l15.1,4.41l13.8,-1.26l7.9,-2.21l13.6,-6.61l8.2,-5.67l6.3,-6.34"></path><path d="M335.48,42.4l-17.28,22.3l-20.12,34.985l12.88,-15.485l11.92,-9.4l8.5,-6l9.2,-4.1l2.5,0.7l-7.6,10.7l-5.9,9.1l-2.2,5.66v5.05l2.2,2.51l3.7,1.265l15.8,-14.185"></path><path d="M350.92,84.9l6.93,1.2l12.33,-5.9l7.2,-6.7l1.9,-4.1l-1.3,-4l-5.6,-1l-13.27,7.6l-9.13,10.7l-3.47,9.11l1.89,7.875l8.5,2.205l12.28,-5.98l11.7,-10.41"></path><path d="M382.72,84.9l6.93,1.2l12.33,-5.9l7.2,-6.7l1.9,-4.1l-1.3,-4l-5.6,-1l-13.27,7.6l-9.13,10.7l-3.47,9.11l1.89,7.875l8.5,2.205l12.28,-5.98l11.7,-10.41"></path><path d="M418.93,105.04l15.75,-3.46l13.9,-5.99l15.4,-10.09l10.1,-10.1l8.8,-11l6.6,-13.5l2.8,-10.7l-0.3,-12.6l-6.6,-11.4l-7.9,-5.3l-7.8,-1.6"></path><path d="M586.18,46.4l-4.1,-2.2l-6.3,2.2l-3.5,4.1l-1.6,6.7l2.6,7.2l7.5,4.7l8.5,4.1l11.4,-1.2l18.6,-8.5l12.9,-12.6l8.79,-15.2l1.58,-11l-4.1,-5.3l-5.67,-1.6l-10.7,4.1l-14.5,14.5l-10.1,15.4l-28.6,38.1l-9.5,10.1l-7.6,5.35l-8.78,-0.31l-3.14,-6.3l1.57,-11.34l3.78,-8.5l5.07,-6.6l2.2,-1.3l15.4,26.16l15.8,11.66l14.1,4.08l14.2,-0.3l7.6,-3.46l3.1,-4.1l0.3,-5.04"></path><path d="M635.98,67.2l-11.03,13l-5.98,12.56v6.925l6.295,2.835l12.615,-6.93l9.7,-10.09M643.88,53.4l0.3,3.4l3.1,-0.6v-1.9l-3.4,-0.9"></path><path d="M647.63,85.5l6.61,-5.7l10.74,-12.9l3.1,-1.9l-10.69,15.5l-7.555,12.89l-0.635,4.09l1.895,2.835l5.035,0.945l4.75,-2.84l7.2,-6.93l24.6,-26.49l1.9,-0.6l0.3,2.5l-17.3,20.8l-1.9,7.26l1.2,4.41l5.1,1.575l5,-3.155l9.5,-8.49l3.4,-3.8"></path></g></g></g></g></svg>